<?xml version="1.0" encoding="utf-8"?>
<!-- Generator: Adobe Illustrator 21.0.0, SVG Export Plug-In . SVG Version: 6.00 Build 0)  -->
<svg version="1.1" id="圖層_1" xmlns="http://www.w3.org/2000/svg" xmlns:xlink="http://www.w3.org/1999/xlink" x="0px" y="0px"
	 viewBox="0 0 1366 768" style="enable-background:new 0 0 1366 768;" xml:space="preserve">
<style type="text/css">
	.st0{opacity:0.5;}
	.st1{fill:#E87A90;}
	.st2{fill:#66BAB7;}
</style>
<g class="st0">
	
		<rect x="660.6" y="121" transform="matrix(0.7071 0.7071 -0.7071 0.7071 322.4746 -496.5023)" class="st1" width="200" height="40"/>
	<rect x="504" y="319" transform="matrix(0.7071 0.7071 -0.7071 0.7071 445.906 -398.5124)" class="st1" width="400" height="40"/>
	
		<rect x="547.4" y="517" transform="matrix(0.7071 0.7071 -0.7071 0.7071 569.3375 -300.5225)" class="st1" width="200" height="40"/>
	
		<rect x="697.6" y="509.9" transform="matrix(0.7071 -0.7071 0.7071 0.7071 -149.8728 698.0128)" class="st1" width="140" height="40"/>
	
		<rect x="570.4" y="128.1" transform="matrix(0.7071 -0.7071 0.7071 0.7071 82.848 496.1751)" class="st1" width="140" height="40"/>
</g>
<g class="st0">
	
		<rect x="631.3" y="247.7" transform="matrix(0.7071 0.7071 -0.7071 0.7071 432.7832 -509.3896)" class="st2" width="400" height="40"/>
	<rect x="504" y="375" transform="matrix(0.7071 0.7071 -0.7071 0.7071 485.504 -382.1104)" class="st2" width="400" height="40"/>
	
		<rect x="824.9" y="438.6" transform="matrix(0.7071 -0.7071 0.7071 0.7071 -62.1915 767.1356)" class="st2" width="140" height="40"/>
	<rect x="570.4" y="184.1" transform="matrix(0.7071 -0.7071 0.7071 0.7071 43.25 512.5771)" class="st2" width="140" height="40"/>
	
		<rect x="408.9" y="325.5" transform="matrix(0.7071 -0.7071 0.7071 0.7071 -98.1713 453.9985)" class="st2" width="180" height="40"/>
</g>
</svg>
